<svg xmlns="http://www.w3.org/2000/svg" width="20.417" height="20.417" viewBox="0 0 20.417 20.417">
  <path id="Path_1135" data-name="Path 1135" d="M352.094,157.8A10.209,10.209,0,1,1,362.3,147.586,10.22,10.22,0,0,1,352.094,157.8Zm.509-6.827v5.752c1.681-.379,3.125-2.605,3.78-5.59C355.153,151.034,353.886,150.979,352.6,150.968Zm-4.8.161c.655,2.985,2.1,5.211,3.78,5.59v-5.752C350.3,150.979,349.034,151.034,347.8,151.129Zm-3.975.476a9.242,9.242,0,0,0,5.228,4.656,10.9,10.9,0,0,1-2.288-5.041C345.753,151.32,344.769,151.449,343.829,151.606Zm13.588-.385a10.9,10.9,0,0,1-2.288,5.041,9.244,9.244,0,0,0,5.228-4.656C359.418,151.449,358.434,151.32,357.418,151.221Zm-13.992-6.689a9.2,9.2,0,0,0,0,6.11c1.01-.174,2.071-.317,3.169-.427a18.99,18.99,0,0,1,0-5.256C345.5,144.849,344.435,144.706,343.425,144.531Zm14.167,5.683c1.1.11,2.16.253,3.169.427a9.2,9.2,0,0,0,0-6.11c-1.01.174-2.071.317-3.169.427a18.994,18.994,0,0,1,0,5.256Zm-4.99-.265c1.346.012,2.677.07,3.966.173a17.17,17.17,0,0,0,0-5.072c-1.289.1-2.62.161-3.966.173Zm-4.984-4.9a17.167,17.167,0,0,0,0,5.072c1.289-.1,2.62-.161,3.966-.173v-4.726C350.238,145.212,348.908,145.153,347.619,145.05Zm4.984-6.6v5.752c1.283-.012,2.551-.066,3.78-.161C355.728,141.059,354.284,138.832,352.6,138.453Zm-4.8,5.59c1.229.1,2.5.15,3.78.161v-5.752C349.9,138.832,348.459,141.059,347.8,144.044Zm7.326-5.132a10.9,10.9,0,0,1,2.288,5.041c1.016-.1,2-.229,2.94-.385A9.244,9.244,0,0,0,355.13,138.912Zm-11.3,4.656c.939.156,1.924.285,2.94.385a10.9,10.9,0,0,1,2.288-5.041A9.243,9.243,0,0,0,343.829,143.567Z" transform="translate(-341.885 -137.378)" fill="#424242"/>
</svg>
