<svg xmlns="http://www.w3.org/2000/svg" width="21.998" height="20.15" viewBox="0 0 21.998 20.15">
  <g id="Group_1277" data-name="Group 1277" transform="translate(-756.231 -139.958)">
    <path id="Path_1136" data-name="Path 1136" d="M769.744,141.892a8.215,8.215,0,1,0,.985,11.581A8.162,8.162,0,0,0,769.744,141.892Zm1.521,5.7a6.844,6.844,0,1,1-2.406-4.654A6.8,6.8,0,0,1,771.265,147.6Z" transform="translate(0 0)" fill="#424242"/>
    <path id="Path_1137" data-name="Path 1137" d="M810.019,189.046l-1.187-1a.684.684,0,0,0-.5-.159.674.674,0,0,0-.466.242.685.685,0,0,0,.083.968l1.187,1a.687.687,0,0,0,.885-1.05Z" transform="translate(-37.648 -35.055)" fill="#424242"/>
    <path id="Path_1138" data-name="Path 1138" d="M819.047,194.158l-2.438-2.078a2.848,2.848,0,0,0-3.087-.381.884.884,0,0,0-.456.542,2.847,2.847,0,0,0,.9,2.978L816.4,197.3a1.882,1.882,0,0,0,2.654-.225l.22-.261A1.886,1.886,0,0,0,819.047,194.158Z" transform="translate(-41.486 -37.634)" fill="#424242"/>
  </g>
</svg>
